<svg width="46" height="40" viewBox="0 0 46 40" fill="none" xmlns="http://www.w3.org/2000/svg">
<rect x="29" y="33" width="4" height="1" fill="#0074BA"/>
<circle cx="23.5" cy="20.5" r="14.5" fill="#0074BA"/>
<rect x="17.1113" y="39.2514" width="10.1144" height="12.5101" transform="rotate(-90.6301 17.1113 39.2514)" fill="#0074BA"/>
<circle cx="13" cy="13" r="13" fill="#F5F5F5"/>
<g clip-path="url(#clip0_960_2111)">
<path d="M20.1401 13.94C20.1801 13.64 20.2001 13.33 20.2001 13C20.2001 12.68 20.1801 12.36 20.1301 12.06L22.1601 10.48C22.3401 10.34 22.3901 10.07 22.2801 9.87002L20.3601 6.55002C20.2401 6.33002 19.9901 6.26002 19.7701 6.33002L17.3801 7.29002C16.8801 6.91002 16.3501 6.59002 15.7601 6.35002L15.4001 3.81002C15.3601 3.57002 15.1601 3.40002 14.9201 3.40002H11.0801C10.8401 3.40002 10.6501 3.57002 10.6101 3.81002L10.2501 6.35002C9.66011 6.59002 9.12011 6.92002 8.63011 7.29002L6.24011 6.33002C6.02011 6.25002 5.77011 6.33002 5.65011 6.55002L3.74011 9.87002C3.62011 10.08 3.66011 10.34 3.86011 10.48L5.89011 12.06C5.84011 12.36 5.80011 12.69 5.80011 13C5.80011 13.31 5.82011 13.64 5.87011 13.94L3.84011 15.52C3.66011 15.66 3.61011 15.93 3.72011 16.13L5.64011 19.45C5.76011 19.67 6.01011 19.74 6.23011 19.67L8.62011 18.71C9.12011 19.09 9.65011 19.41 10.2401 19.65L10.6001 22.19C10.6501 22.43 10.8401 22.6 11.0801 22.6H14.9201C15.1601 22.6 15.3601 22.43 15.3901 22.19L15.7501 19.65C16.3401 19.41 16.8801 19.09 17.3701 18.71L19.7601 19.67C19.9801 19.75 20.2301 19.67 20.3501 19.45L22.2701 16.13C22.3901 15.91 22.3401 15.66 22.1501 15.52L20.1401 13.94ZM13.0001 16.6C11.0201 16.6 9.40011 14.98 9.40011 13C9.40011 11.02 11.0201 9.40002 13.0001 9.40002C14.9801 9.40002 16.6001 11.02 16.6001 13C16.6001 14.98 14.9801 16.6 13.0001 16.6Z" fill="#0074BA"/>
</g>
<path d="M42.1776 24.0836C42.6768 24.674 42.3458 25.5832 41.5839 25.7147L33.3228 27.1396C32.5658 27.2702 31.9504 26.534 32.2131 25.8121L35.0618 17.9855C35.3245 17.2637 36.2692 17.0953 36.7651 17.6819L42.1776 24.0836Z" fill="#0074BA"/>
<path d="M20.6523 24.4075H37.6523V29.4075C37.6523 31.6167 35.8615 33.4075 33.6523 33.4075H20.6523V24.4075Z" fill="#0074BA"/>
<path d="M33.3242 39.1897L28.325 39.4517L28.1762 36.6138C28.0895 34.9592 29.3605 33.5476 31.0151 33.4609L33.0185 33.3559L33.3242 39.1897Z" fill="#F5F5F5"/>
<defs>
<clipPath id="clip0_960_2111">
<rect width="24" height="24" fill="white" transform="translate(1 1)"/>
</clipPath>
</defs>
</svg>
