<svg width="70" height="70" viewBox="0 0 70 70" fill="none" xmlns="http://www.w3.org/2000/svg">
<path d="M15.4086 0.0857849C15.2326 0.168491 14.8621 0.591209 14.3897 1.24367C13.9821 1.80423 13.4819 2.48426 13.2781 2.75994C13.0743 3.02644 12.6668 3.57781 12.3611 3.97296C11.6942 4.85516 11.37 5.21355 11.2774 5.14922C11.2403 5.13084 10.7308 4.19351 10.1565 3.08158C9.03573 0.903654 8.56333 0.242006 8.15576 0.242006C7.70188 0.242006 6.4236 0.591209 5.65478 0.931223C3.38538 1.92369 0.569465 3.89945 0.161898 4.79083C-0.162303 5.48924 -0.0418853 5.92115 0.912191 7.40985C2.21826 9.45912 4.23756 13.1349 7.39621 19.1908C8.42439 21.1758 8.43365 21.1942 8.73006 21.1942C8.90605 21.1942 9.34141 21.0379 9.75824 20.8174C11.9906 19.6503 15.2141 18.5935 17.891 18.1524C18.2801 18.0881 18.6043 17.9962 18.6043 17.9594C18.6043 17.9135 18.0578 17.0681 17.3816 16.0664C15.7698 13.6679 15.7884 13.8517 16.9648 12.0873C17.4464 11.3614 18.4376 9.80832 19.1601 8.65044C21.3924 5.10328 21.4758 4.93786 21.4758 4.09243C21.4758 3.70646 21.4295 3.60538 21.0497 3.19185C20.8089 2.92535 20.1882 2.37398 19.6695 1.96045C17.7336 0.425798 16.1774 -0.254229 15.4086 0.0857849Z" fill="#0074BA"/>
<path d="M44.9109 0.774969C43.9198 1.17931 40.3073 3.66968 39.0753 4.79999C38.6029 5.24109 38.5195 5.36055 38.5195 5.63624C38.5195 5.81084 38.5566 6.0222 38.6122 6.11409C38.6585 6.20599 39.2513 6.75736 39.9275 7.3363C41.7986 8.94447 44.9109 12.0138 44.9109 12.2527C44.9109 12.4733 44.4478 12.8868 43.0306 13.9252C42.5396 14.2928 42.1506 14.6236 42.1784 14.6696C42.1969 14.7063 42.5211 14.7615 42.8916 14.7982C43.2621 14.835 44.2625 14.9636 45.1054 15.0831C52.1082 16.0847 57.74 18.6578 63.0662 23.2985C63.6497 23.804 64.1592 24.2267 64.1962 24.2267C64.4463 24.2359 62.742 19.6687 61.5748 17.2334C61.2228 16.4891 60.9357 15.7815 60.9357 15.6437C60.9357 15.4507 61.7971 14.5501 65.456 10.9018C69.5965 6.75736 69.967 6.36221 69.9948 6.04977C70.0226 5.72813 69.9763 5.673 68.698 4.42322C66.6602 2.45666 64.8354 1.25283 63.8813 1.25283C63.0198 1.25283 63.0754 1.20688 57.8048 6.0222C56.6655 7.06062 55.6744 7.952 55.591 7.98876C55.5077 8.0439 55.3965 8.01633 55.3039 7.93362C54.285 7.06981 51.4135 4.62539 51.0244 4.29457C49.0885 2.63126 47.1803 1.14255 46.6338 0.866865C46.1244 0.609558 45.4204 0.5728 44.9109 0.774969Z" fill="#0074BA"/>
<path d="M39.9096 19.9995C35.4171 20.4222 31.9342 21.9844 29.1554 24.8056L28.3588 25.6143L27.8586 25.2834C26.6081 24.4656 24.95 23.7396 23.4309 23.3444C20.578 22.6093 17.6324 22.7196 14.7887 23.6661C13.3807 24.1347 12.5285 24.5391 11.4262 25.2559C6.97079 28.1414 4.52539 33.1864 4.52539 39.518C4.52539 40.437 4.72917 42.3209 4.94222 43.4787C5.22937 44.9583 5.7944 46.7043 6.53543 48.3492C9.51808 54.9657 16.0206 60.2037 23.7459 62.2346C25.1446 62.593 25.2372 62.6022 25.302 62.3724C25.3576 62.1427 25.2557 61.9865 24.5239 61.1502C22.2545 58.5404 20.2167 54.2764 19.4201 50.4628C19.1885 49.3141 19.1329 48.8546 19.1237 47.7519C19.1144 46.1713 19.2256 45.6842 19.7072 45.1788C20.1148 44.7469 20.615 44.5999 21.6154 44.5999C23.5884 44.5907 24.2461 45.3534 24.4406 47.9081C24.8296 52.9532 27.3676 57.989 31.5174 61.9681C34.5186 64.8444 37.9459 66.9121 41.9659 68.2905C46.9957 70.0089 52.7665 70.45 58.2686 69.5311C61.6773 68.9705 65.929 67.6013 68.9117 66.1218L69.6156 65.7726L69.6712 64.7341C69.7638 63.126 69.7453 56.9322 69.6434 55.1678C69.1247 46.548 67.6612 40.1797 64.9471 34.8406C62.6129 30.2458 59.3246 26.4689 55.4805 23.9785C53.1833 22.4898 49.9783 21.1573 47.0976 20.5049C45.1709 20.0638 41.7807 19.8248 39.9096 19.9995Z" fill="#0074BA"/>
</svg>
