<svg width="123" height="75" viewBox="0 0 123 75" fill="none" xmlns="http://www.w3.org/2000/svg">
<g clip-path="url(#clip0_1410_2246)">
<path d="M60.9998 40C67.4457 40 72.6665 34.7792 72.6665 28.3334C72.6665 21.8875 67.4457 16.6667 60.9998 16.6667C54.554 16.6667 49.3332 21.8875 49.3332 28.3334C49.3332 34.7792 54.554 40 60.9998 40ZM60.9998 45.8334C53.2123 45.8334 37.6665 49.7417 37.6665 57.5V63.3334H84.3332V57.5C84.3332 49.7417 68.7873 45.8334 60.9998 45.8334Z" fill="#0074BA"/>
</g>
<g clip-path="url(#clip1_1410_2246)">
<path d="M87.9998 35C94.4457 35 99.6665 29.7792 99.6665 23.3334C99.6665 16.8875 94.4457 11.6667 87.9998 11.6667C81.554 11.6667 76.3332 16.8875 76.3332 23.3334C76.3332 29.7792 81.554 35 87.9998 35ZM87.9998 40.8334C80.2123 40.8334 64.6665 44.7417 64.6665 52.5V58.3334H111.333V52.5C111.333 44.7417 95.7873 40.8334 87.9998 40.8334Z" fill="#0074BA"/>
</g>
<g clip-path="url(#clip2_1410_2246)">
<path d="M34.9998 35C41.4457 35 46.6665 29.7792 46.6665 23.3334C46.6665 16.8875 41.4457 11.6667 34.9998 11.6667C28.554 11.6667 23.3332 16.8875 23.3332 23.3334C23.3332 29.7792 28.554 35 34.9998 35ZM34.9998 40.8334C27.2123 40.8334 11.6665 44.7417 11.6665 52.5V58.3334H58.3332V52.5C58.3332 44.7417 42.7873 40.8334 34.9998 40.8334Z" fill="#0074BA"/>
</g>
<defs>
<clipPath id="clip0_1410_2246">
<rect width="70" height="70" fill="white" transform="translate(26 5)"/>
</clipPath>
<clipPath id="clip1_1410_2246">
<rect width="70" height="70" fill="white" transform="translate(53)"/>
</clipPath>
<clipPath id="clip2_1410_2246">
<rect width="70" height="70" fill="white"/>
</clipPath>
</defs>
</svg>
